<svg version="1.1" xmlns="http://www.w3.org/2000/svg" style="display: block;" viewBox="0 0 1800 1644" width="450" height="411" preserveAspectRatio="none">
<defs>
	<linearGradient id="Gradient1" gradientUnits="userSpaceOnUse" x1="831.918" y1="1144.73" x2="817.711" y2="1171.5">
		<stop class="stop0" offset="0" stop-opacity="0.960784" stop-color="rgb(0,0,0)"/>
		<stop class="stop1" offset="1" stop-opacity="1" stop-color="rgb(0,0,0)"/>
	</linearGradient>
</defs>
<path transform="translate(0,0)" fill="rgb(0,0,0)" d="M 714.157 0 L 1000.91 0 C 1004.49 2.04914 1007.41 2.54394 1011.34 3.49245 C 1031.47 8.34972 1051.99 13.2611 1071.67 19.7292 C 1248.94 76.8097 1396.26 201.994 1481.2 367.726 C 1566.11 534.623 1580.73 728.551 1521.79 906.29 C 1461.84 1085.27 1332.47 1232.64 1162.76 1315.26 C 1136.59 1328.3 1096.11 1343.57 1068.8 1352.09 C 926.189 1396.74 773.106 1395.09 631.489 1347.39 C 457.137 1286.97 313.472 1160.52 231.406 995.253 C 149.488 828.607 136.85 636.313 196.253 460.379 C 259.497 273.874 398.655 122.806 579.351 44.4934 C 605.746 33.044 632.789 23.1505 660.341 14.8635 C 670.377 11.9026 708.454 3.30904 714.157 0 z M 830.917 78.0251 C 832.468 90.3752 833.514 182.316 830.237 191.245 C 814.818 193.382 797.553 195.464 782.635 199.456 C 687.354 224.949 611.804 303.971 593.002 401.126 C 591.202 410.427 588.738 419.344 588.371 428.938 C 564.885 426.972 534.634 429.334 510.564 428.53 C 501.84 428.238 492.477 429.077 483.721 428.198 C 484.063 442.078 484.518 466.282 483.251 479.921 C 487.793 479.618 492.479 479.358 497.026 479.483 C 527.476 480.32 558.516 478.997 588.891 480.311 C 589.064 491.397 592.724 508.31 595.539 519.116 C 608.301 568.112 633.172 612.154 670.278 646.94 C 717.315 691.037 768.567 713.276 832.093 720.644 L 832.11 791.706 C 832.104 802.832 831.454 817.871 832.348 828.47 C 837.435 829.745 859.697 829.079 866.25 829.043 L 885.102 829.084 C 883.749 797.34 884.502 752.494 885.183 720.302 C 945.102 719.048 1014.95 679.822 1055.74 637.418 C 1097.08 594.684 1122.81 539.27 1128.79 480.116 C 1163.38 479.847 1197.96 479.778 1232.55 479.907 C 1231.52 465.966 1232.05 442.945 1232.31 428.472 L 1164.36 428.445 C 1154.49 428.442 1137.82 427.941 1128.39 428.69 C 1126.82 417.558 1124.56 401.001 1121.95 390.383 C 1107.65 332.507 1073.97 281.27 1026.51 245.195 C 985.01 213.942 937.277 194.039 884.997 191.505 C 884.642 156.37 883.754 112.411 885.261 77.6156 L 847.59 77.4376 C 842.031 77.5911 836.473 77.787 830.917 78.0251 z M 899.082 1210.53 C 905.062 1210.69 911.337 1210.76 917.284 1211.06 C 916.899 1199.92 917.346 1188.24 917.411 1177 C 917.47 1166.84 916.78 1155.56 917.155 1145.6 C 924.59 1163.03 935.047 1180.78 943.626 1197.87 L 960.146 1198.78 C 964.893 1188 980.173 1157.61 986.542 1148.08 C 985.93 1157.73 985.787 1165.15 985.906 1174.82 C 986.036 1185.69 986.555 1199.45 986.022 1210.09 C 991.615 1210.19 998.59 1210.12 1004.01 1210.77 C 1003.51 1180.93 1003.25 1145.3 1004.21 1115.62 L 983.59 1116.22 C 972.638 1134.81 961.87 1156.95 950.895 1176.54 C 945.34 1161.35 928.413 1132.73 920.35 1116.08 C 915.02 1115.84 904.831 1115.68 899.924 1114.85 C 898.465 1146.38 900.227 1178.99 899.082 1210.53 z M 616.488 1149.49 C 619.837 1144.23 636.711 1119.82 635.975 1115.4 C 631.547 1114.42 621.66 1115.78 616.473 1116.18 C 610.594 1126 597.221 1147.1 594.388 1156.87 C 587.176 1147.71 576.013 1126.75 569.969 1115.92 C 562.202 1115.35 556.041 1115.22 548.264 1115.21 C 553.026 1123.39 557.688 1131.23 562.676 1139.15 C 569.992 1150.75 581.637 1162.95 583.434 1176.9 C 584.691 1186.65 584.315 1200.59 584.308 1210.69 C 591.488 1210.51 595.702 1210.53 602.819 1211.17 C 602.59 1179.37 599.147 1175.41 616.488 1149.49 z M 1040.89 1115.1 C 1039.38 1143.57 1040.62 1180.84 1040.49 1210.1 C 1046.28 1210.12 1051.88 1209.99 1057.64 1210.67 C 1058.8 1204.86 1058.55 1184.6 1058.6 1177.32 L 1059.14 1115.75 C 1052.93 1115.82 1047.04 1116.08 1040.89 1115.1 z M 664.632 1115.46 C 663.284 1144.72 664.026 1181.12 664.302 1210.81 C 671.675 1210.4 675.013 1210.51 682.398 1211.18 C 682.875 1191.19 683.516 1167.07 681.342 1147.39 C 696.873 1165.32 712.609 1192.45 728.068 1209.82 C 734.221 1210.32 740.969 1211.02 747.088 1211.27 C 746.869 1181.32 746.053 1145.88 746.957 1116.06 C 740.376 1116.16 735.709 1116.14 729.17 1115.62 C 728.901 1135.73 727.977 1164.12 729.284 1183.75 C 719.963 1166.83 693.806 1132.61 681.273 1116.24 C 676.067 1116.02 669.724 1115.92 664.632 1115.46 z M 813.529 1115.75 C 801.19 1146.45 787.473 1180.57 776.467 1211.59 C 784.19 1210.54 787.481 1210.32 795.262 1210.51 C 797.598 1203.05 800.521 1196.41 803.558 1189.24 C 813.705 1189 823.855 1188.96 834.003 1189.11 C 847.949 1189.67 844.434 1198.3 850.058 1209.96 L 869.499 1210.79 C 862.419 1189.89 853.398 1168.77 845.822 1147.98 C 842.107 1137.78 836.848 1126.11 834.547 1115.68 L 813.529 1115.75 z M 1326.26 1060.81 C 1325.46 1045.22 1325.67 1027.2 1326.05 1011.54 C 1327 972.494 1325.16 932.551 1326.27 893.602 C 1317.36 893.873 1301.19 894.579 1292.71 893.474 C 1292.77 946.521 1294.28 1008.06 1292.68 1060.58 C 1303.04 1060.7 1316.08 1061.18 1326.26 1060.81 z M 1268.66 1125.88 C 1253.96 1115 1247.34 1113.49 1228.81 1114.3 C 1204.87 1117.91 1201.87 1130.64 1204.1 1152.08 L 1204.78 1153.14 C 1217.7 1173.4 1251.52 1169.67 1251.31 1186.16 C 1249.61 1190.13 1245.97 1192.33 1242.09 1193.92 C 1230.92 1198.51 1219.17 1191.3 1210.52 1185.03 C 1206.81 1187.8 1202.02 1190.84 1199.51 1194.53 C 1198.78 1208.62 1228.28 1212.86 1239.25 1212.01 C 1265.42 1211.11 1279.68 1184.89 1261.28 1164.31 C 1251.5 1153.37 1226.46 1153.71 1222.03 1141.33 C 1222.87 1123.83 1247.28 1132.55 1256.07 1139.17 L 1268.66 1125.88 z M 465.104 1115.5 L 449.74 1115.81 L 449.953 1175.6 C 449.952 1185.21 450.263 1200.98 449.304 1210.27 C 471.747 1209.96 492.207 1214.08 511.469 1203.29 C 523.392 1193.9 531.188 1184.8 532.46 1169.44 C 536.517 1120.43 503.15 1114.13 465.104 1115.5 z M 1162.46 1139.73 C 1165.86 1136.49 1170.38 1132.88 1172.17 1128.76 C 1169.78 1116.39 1143.99 1113.66 1133.7 1114.42 C 1067.83 1120.14 1079.09 1219.23 1142.54 1212.33 C 1154.4 1211.05 1164.34 1205.04 1173.32 1197.43 C 1169.87 1193.16 1165.71 1186.55 1160.58 1185.9 L 1159.52 1186.34 C 1156.41 1188.5 1153.42 1190.5 1150.11 1192.21 C 1125.77 1204.69 1102.38 1177.61 1109.35 1154.06 C 1118.05 1124.66 1141.85 1128.11 1162.46 1139.73 z M 803.123 1020.25 C 803.153 988.677 802.935 956.745 803.322 925.202 C 817.791 924.973 832.261 924.889 846.731 924.951 C 845.842 914.969 846.127 903.847 846.134 893.753 C 820.822 894.109 794.871 893.638 769.47 893.699 C 757.679 893.727 735.725 894.686 725.172 893.815 C 725.804 901.586 726.012 916.84 725.25 924.638 C 739.988 924.955 754.73 925.084 769.472 925.026 C 768.636 967.2 771.304 1020.12 769.012 1060.79 C 780.607 1060.75 792.202 1060.84 803.796 1061.04 C 802.456 1050.41 803.114 1031.78 803.123 1020.25 z M 1019.03 893.483 C 1019.07 903.842 1019.27 914.439 1018.67 924.763 C 1032.79 924.969 1046.91 925.042 1061.04 924.982 L 1060.84 1060.37 L 1095.9 1061.15 C 1094.52 1049.43 1095.14 1028.94 1095.2 1016.45 C 1095.26 988.15 1096.33 953.029 1095.11 925.264 C 1110.06 924.89 1125.01 924.85 1139.96 925.143 C 1138.79 915.519 1139.13 903.683 1139.11 893.846 L 1062 893.676 C 1051.29 893.708 1028.89 894.593 1019.03 893.483 z M 597.06 893.895 L 597.013 1001.93 C 596.997 1020.65 597.476 1041.94 596.818 1060.5 C 630.614 1061.06 664.417 1061.12 698.215 1060.68 C 698.007 1050.27 697.743 1040.76 698.346 1030.35 C 677.075 1031.12 652.331 1029.5 632.03 1030.7 L 631.91 999.75 C 632.217 994.861 631.381 995.455 633.939 992.54 C 644.478 990.745 679.33 992.323 691.965 992.016 L 692.341 963.424 C 678.815 963.27 643.659 962.224 631.824 963.697 C 631.89 951.142 631.734 937.467 632.151 925.002 C 654.087 924.976 676.489 924.712 698.386 924.98 C 697.992 914.056 697.983 904.724 698.236 893.792 L 631.717 893.765 C 621.818 893.801 606.085 894.69 597.06 893.895 z M 1168.2 893.045 C 1166.8 908.579 1167.87 929.196 1167.62 945.204 C 1167.04 983.31 1168.6 1022.85 1167.67 1060.82 L 1234.83 1060.98 C 1240 1060.99 1259.73 1061.42 1264.03 1060.81 C 1263.96 1050.76 1263.97 1040.71 1264.05 1030.66 C 1251.29 1030.53 1211.92 1029.34 1201.15 1030.67 C 1201.77 999.854 1201.1 968.776 1201.32 937.943 C 1201.42 923.599 1200.85 907.711 1201.65 893.58 C 1193.18 893.826 1175.93 894.675 1168.2 893.045 z M 991.795 1061.1 C 992.421 1052.38 992.071 1039.63 992.045 1030.62 C 972.283 1031.29 929.522 1028.44 913.493 1031.1 C 935.711 995.044 965.587 958.137 987.224 921.449 C 989.198 918.102 989.167 899.164 989.308 893.769 L 915.479 893.741 C 905.391 893.741 883.762 894.559 874.922 892.794 C 874.872 902.85 875.028 914.776 874.399 924.74 C 897.067 924.906 924.063 925.729 946.367 924.702 C 939.002 933.058 931.548 944.78 925.372 954.256 C 907.517 981.649 887.393 1008.03 870.705 1036.04 C 868.237 1040.19 868.704 1055.13 868.722 1060.69 C 909.113 1060.87 951.684 1060.19 991.795 1061.1 z M 527.645 1000.68 L 527.921 1060.28 C 538.303 1060.49 549.107 1060.86 559.455 1060.84 C 557.486 1014.35 560.341 966.107 559.314 919.477 C 559.134 911.315 559.199 901.994 559.603 893.848 C 547.31 894.027 533.681 894.406 521.412 893.915 C 509.855 918.544 500.162 945.57 489.023 970.511 C 484.638 980.329 479.504 994.004 474.077 1003.02 C 460.36 966.039 442.594 930.33 428.438 893.714 C 419.456 893.805 399.47 894.491 391.711 892.901 C 389.775 929.784 392.146 971.46 391.494 1008.7 C 391.222 1024.23 392.443 1046.03 390.861 1061.12 C 401.27 1061.06 413.356 1061.23 423.596 1060.54 C 424.053 1047.66 423.173 963.817 425.78 960.033 C 428.556 961.558 433.033 975.264 434.505 979.125 C 442.485 1000.05 456.268 1023.39 462.449 1044.55 L 487.398 1044.46 C 499.912 1015.24 516.631 979.626 527.583 950.472 C 527.462 967.651 527.257 983.415 527.645 1000.68 z"/>
<path transform="translate(0,0)" fill="rgb(0,0,0)" d="M 836.546 213.441 C 969.924 201.314 1087.89 299.581 1100.07 432.954 C 1112.24 566.328 1014.02 684.332 880.655 696.56 C 747.213 708.795 629.132 610.509 616.948 477.063 C 604.765 343.617 703.095 225.573 836.546 213.441 z M 923.364 311.317 C 916.474 308.921 909.447 306.589 902.399 304.708 C 821.616 283.152 741.677 324.261 714.507 403.361 C 701.642 441.816 704.518 483.801 722.509 520.143 C 740.949 557.206 773.418 585.376 812.712 598.403 C 848.717 610.567 894.067 606.962 927.978 589.806 C 965.474 570.592 993.742 537.197 1006.5 497.043 C 1010.51 484.815 1012.77 472.081 1013.22 459.22 C 1013.83 451.212 1013.59 447.66 1012.91 439.577 C 1011.49 445.517 1011.02 448.879 1010.34 454.976 C 998.707 491.019 982.111 518.367 947.595 536.391 C 891.356 565.758 817.376 540.483 789.787 483.847 C 751.045 404.314 808.035 305.566 899.583 311.405 C 906.569 311.85 916.657 312.226 923.364 311.317 z M 860.442 661.674 C 877.369 658.901 874.64 638.06 857.386 635.049 C 840.244 642.647 840.917 660.391 860.442 661.674 z M 863.95 269.17 C 876.734 255.135 873.483 242.187 853.352 243.144 C 849.717 246.448 846.657 249.762 846.259 254.969 C 845.989 258.334 847.103 261.663 849.344 264.188 C 852.712 267.97 856.702 269.217 861.591 269.225 C 862.378 269.22 863.164 269.202 863.95 269.17 z M 667.516 430.775 C 674.3 429.745 679.003 423.462 678.081 416.662 C 677.158 409.862 670.951 405.06 664.137 405.874 C 659.632 406.412 655.767 409.338 654.025 413.527 C 652.283 417.716 652.935 422.52 655.73 426.094 C 658.525 429.667 663.03 431.457 667.516 430.775 z M 669.478 498.403 C 683.817 492.147 681.024 472.64 662.528 473.796 C 646.982 484.104 651.167 497.382 669.478 498.403 z M 1053.76 430.55 C 1058.21 429.824 1061.92 426.754 1063.46 422.52 C 1065.01 418.286 1064.15 413.548 1061.21 410.126 C 1058.28 406.705 1053.73 405.133 1049.31 406.015 C 1042.64 407.346 1038.26 413.776 1039.48 420.469 C 1040.69 427.161 1047.04 431.646 1053.76 430.55 z M 738.696 617.221 C 750.204 603.52 748.016 592.315 728.379 592.093 C 714.64 603.815 721.512 616.486 738.168 617.194 L 738.696 617.221 z M 987.54 314.61 C 993.957 309.895 998.834 302.078 993.116 294.839 C 988.7 289.247 983.512 290.672 977.273 291.199 C 971.246 295.546 968.679 303.15 973.365 309.482 C 975.472 312.293 978.631 314.129 982.117 314.567 C 983.603 314.768 986.002 314.715 987.54 314.61 z M 727.252 291.103 C 714.092 301.483 722.247 316.822 739.22 313.847 C 753.507 302.812 745.804 289.305 727.252 291.103 z M 920.862 626.515 C 914.625 628.978 911.525 635.996 913.905 642.265 C 916.285 648.534 923.262 651.727 929.562 649.43 C 933.712 647.917 936.726 644.287 937.453 639.93 C 938.179 635.573 936.504 631.162 933.069 628.385 C 929.634 625.607 924.971 624.893 920.862 626.515 z M 797.754 280.122 C 810.773 267.019 802.915 255.849 786.008 256.757 C 774.55 269.256 779.088 282.471 796.54 280.28 L 797.754 280.122 z M 987.49 615.522 C 993.63 613.197 996.797 606.401 994.629 600.204 C 992.461 594.006 985.748 590.667 979.497 592.676 C 975.31 594.022 972.182 597.534 971.327 601.849 C 970.472 606.164 972.025 610.603 975.384 613.444 C 978.742 616.284 983.377 617.08 987.49 615.522 z M 796.423 649.377 C 802.65 646.696 805.581 639.521 803.012 633.247 C 800.443 626.973 793.321 623.914 787.002 626.37 C 782.813 627.999 779.829 631.762 779.197 636.212 C 778.566 640.662 780.386 645.107 783.957 647.836 C 787.528 650.566 792.295 651.155 796.423 649.377 z M 1055.5 498.068 C 1059.8 496.673 1063 493.054 1063.86 488.617 C 1064.72 484.181 1063.1 479.627 1059.64 476.725 C 1056.18 473.823 1051.41 473.031 1047.19 474.657 C 1040.91 477.078 1037.7 484.06 1039.95 490.404 C 1042.2 496.748 1049.09 500.146 1055.5 498.068 z M 920.463 257.812 C 916.46 259.892 913.902 263.98 913.781 268.488 C 913.66 272.997 915.995 277.216 919.88 279.508 C 923.765 281.799 928.587 281.802 932.475 279.515 C 938.271 276.105 940.295 268.697 937.038 262.813 C 933.782 256.929 926.43 254.711 920.463 257.812 z M 688.094 563.908 C 707.959 560.976 702.344 538.307 690.141 539.16 C 671.835 541.408 671.644 559.794 688.094 563.908 z M 1027.32 538.981 C 1022.81 539.432 1018.91 542.3 1017.13 546.466 C 1015.36 550.632 1015.99 555.435 1018.78 559 C 1021.57 562.566 1026.08 564.328 1030.55 563.6 C 1037.18 562.521 1041.75 556.376 1040.87 549.723 C 1040 543.069 1034 538.313 1027.32 538.981 z M 684.14 341.985 C 672.944 350.523 674.737 365.954 689.201 366.409 C 690.247 366.442 691.293 366.351 692.317 366.14 C 696.057 364.535 698.856 364.002 700.26 359.931 C 704.629 347.26 695.439 340.555 684.14 341.985 z M 1024.76 341.681 C 1006.66 356.264 1023.2 371.034 1032.56 366.309 C 1046.34 357.351 1042.75 343.258 1028.63 341.706 C 1027.34 341.554 1026.05 341.546 1024.76 341.681 z"/>
<path transform="translate(0,0)" fill="rgb(0,0,0)" fill-opacity="0.388235" d="M 1010.34 454.976 C 1011.02 448.879 1011.49 445.517 1012.91 439.577 C 1013.59 447.66 1013.83 451.212 1013.22 459.22 C 1012.07 455.627 1012.93 456.411 1010.34 454.976 z"/>
<path transform="translate(0,0)" fill="rgb(0,0,0)" d="M 469.319 1130.95 C 488.556 1133.2 510.874 1131 514.541 1158.78 C 515.988 1169.74 511.332 1178.7 504.521 1186.97 C 493.703 1195.34 481.348 1194.71 468.09 1196.23 C 468.7 1183.32 466.939 1139.93 469.319 1130.95 z"/>
<path transform="translate(0,0)" fill="url(#Gradient1)" d="M 822.023 1136.57 C 824.186 1138.5 834.947 1167.21 834.218 1170.32 C 830.37 1172.05 825.166 1171.52 820.75 1171.49 C 818.355 1171.18 812.124 1172.1 809.391 1172.41 C 813.825 1160.53 818.378 1148.72 822.023 1136.57 z"/>
<path transform="translate(0,0)" fill="rgb(25,67,133)" d="M 790.244 1428.91 C 814.801 1428.62 846.637 1426.28 849.83 1460.55 C 851.131 1474.51 848.468 1484.29 839.44 1495.11 C 826.217 1505.67 807.855 1503.31 790.916 1504.07 C 790.155 1482.61 792.132 1448.02 790.244 1428.91 z M 807.628 1493.04 C 815.435 1492.22 820.156 1492.24 826.874 1487.99 C 835.481 1474.53 839.055 1454.09 823.107 1444.14 C 819.254 1441.74 812.46 1441.21 807.891 1440.59 C 807.158 1455.38 807.013 1478.07 807.628 1493.04 z"/>
<path transform="translate(0,0)" fill="rgb(25,67,133)" d="M 466.232 1427.61 C 485.194 1430.56 484.338 1426.72 491.479 1447.42 C 496.039 1460.63 501.563 1473.46 503.787 1487.46 C 508.97 1468.8 515.377 1445.6 524.914 1428.72 C 532.185 1428.88 536.649 1428.97 543.822 1428.2 C 543.923 1450.94 544.877 1478.72 543.144 1501.49 C 543.056 1502.65 542.122 1502.74 540.548 1503.73 C 536.403 1503.74 533.077 1504.09 528.979 1504.47 C 528.262 1490.13 528.486 1478.3 528.883 1463.9 C 529.916 1457.87 529.956 1454.87 530.039 1448.72 C 524.198 1460.4 514.091 1501.98 503.554 1504.97 C 494.418 1501.31 483.335 1460.68 477.319 1448.13 C 479.262 1465.93 479.508 1486.3 480.13 1504.36 C 474.67 1503.74 470.029 1503.77 464.548 1503.73 C 465.178 1490.02 461.111 1434.93 466.232 1427.61 z"/>
<path transform="translate(0,0)" fill="rgb(25,67,133)" d="M 1031.85 1448.08 C 1039.77 1447.54 1039.42 1447.2 1046.69 1450.47 C 1052.85 1453.24 1062.06 1446.92 1069.86 1448.29 C 1076.34 1449.44 1074.73 1453.46 1079.9 1453.68 C 1094.18 1448.85 1097.74 1441.52 1111.61 1455.91 C 1115.87 1471.35 1113.53 1487.57 1114.27 1504.18 C 1109.05 1503.84 1103.08 1504.01 1097.78 1504.04 C 1097.83 1492.58 1100.88 1468.54 1094.29 1461.25 C 1089.49 1458.89 1086.65 1460.27 1081.49 1461.98 C 1079.99 1467 1081.02 1497.26 1081.28 1504.06 C 1076 1503.85 1070.61 1504.1 1065.32 1504.25 C 1065.31 1497.33 1066.6 1466.08 1063.25 1462.16 C 1046.14 1453.2 1047.26 1471.48 1047.16 1482.45 C 1047.08 1489.77 1047.25 1496.8 1047.88 1504.1 C 1042.94 1503.87 1037.85 1504.09 1032.9 1504.21 C 1033.4 1489.46 1033.21 1462.62 1031.85 1448.08 z"/>
<path transform="translate(0,0)" fill="rgb(25,67,133)" d="M 992.982 1448.2 C 1001.98 1447.37 1007.78 1449.1 1015.43 1453.32 C 1015.85 1453.91 1016.25 1454.51 1016.65 1455.11 C 1020.94 1461.82 1022.01 1496.49 1020.48 1502.93 C 1013.52 1504.57 994.448 1501.64 986.218 1502.63 C 982.732 1503.05 977.484 1500.15 974.827 1497.65 C 959.103 1466.67 999.279 1472.9 1004.2 1466.17 C 1003.9 1462.21 1001.96 1460.53 998.605 1458.89 C 992.449 1458.97 990.018 1461.91 985.742 1466.05 C 980.68 1465.96 975.605 1466.41 970.55 1466.75 C 977.208 1453.96 978.295 1451.2 992.982 1448.2 z M 992.426 1493.25 C 995.192 1493.07 999.112 1493.19 1001.08 1490.93 C 1004.57 1486.9 1006.44 1481.97 1002.94 1477.37 L 1000.49 1477.19 C 993.515 1478.08 988.694 1478.94 987.135 1486.86 C 988.26 1490.45 988.852 1491.5 992.426 1493.25 z"/>
<path transform="translate(0,0)" fill="rgb(25,67,133)" d="M 578.492 1448.26 C 602.184 1446.31 606.629 1460 607.094 1480.29 C 599.516 1479.48 573.399 1476.8 571.26 1485.62 C 577.252 1494.9 590.673 1492.29 598.664 1486.72 C 601.918 1489.03 602.425 1489.34 604.221 1492.87 C 604.454 1507.04 557.791 1510.36 555.787 1481.45 C 554.52 1463.17 558.413 1450.87 578.492 1448.26 z M 585.898 1469.46 L 589.624 1469.83 L 591.28 1468.44 C 591.219 1460.18 584.047 1459.62 577.749 1460.12 C 574.991 1462.37 572.791 1463.61 571.72 1466.9 C 574.091 1470.76 581.569 1469.58 585.898 1469.46 z"/>
<path transform="translate(0,0)" fill="rgb(25,67,133)" d="M 891.927 1447.5 C 897.669 1448.43 903.089 1448.02 908.9 1447.83 C 902.95 1463.38 897.247 1479.03 891.794 1494.76 C 888.9 1504.1 885.511 1514.89 878.462 1521.83 C 872.966 1527.24 863.954 1527.1 859.083 1521.1 C 859.149 1514.57 875.983 1508.49 874.441 1502.56 C 872.378 1494.62 854.214 1454.28 856.155 1448.35 L 871.393 1447.91 C 875.212 1459.41 878.207 1470.9 882.267 1482.76 C 885.137 1470.39 888.263 1459.69 891.927 1447.5 z"/>
<path transform="translate(0,0)" fill="rgb(25,67,133)" d="M 921.49 1447.46 C 925.452 1448.45 929.597 1449.75 933.54 1450.9 L 932.941 1451.14 C 972.619 1436.53 962.155 1479.97 963.4 1503.99 L 947.595 1503.73 C 947.82 1492.85 947.744 1481.66 947.803 1470.75 C 947.549 1466.87 947.804 1465.31 945.878 1462.11 C 923.33 1449.22 929.617 1492.42 930.296 1504.1 C 925.098 1503.77 919.09 1503.99 913.815 1504.05 C 914.477 1487.44 912.393 1465.81 914.304 1449.88 C 916.464 1447.81 918.131 1448.09 921.49 1447.46 z"/>
<path transform="translate(0,0)" fill="rgb(25,67,133)" d="M 1228.86 1448.41 C 1238.95 1447.77 1243.19 1449.63 1251.17 1454.8 C 1252.84 1458.71 1254.49 1462.64 1256.12 1466.58 C 1251.01 1466.5 1246.98 1466.61 1241.88 1466.9 C 1237.31 1461.45 1231.82 1456.01 1224.02 1460.59 C 1222.9 1463.8 1223.16 1462.62 1224.36 1466.51 C 1232.41 1469.83 1263.13 1476.86 1254.68 1492.51 C 1250.84 1499.62 1243.77 1501.64 1236.27 1503.23 C 1225.43 1503.57 1223.12 1503.49 1213.36 1499.07 C 1209.09 1492.82 1208.5 1491.43 1205.61 1484.23 L 1218.33 1485.29 C 1222.83 1489.35 1236.2 1498 1239.89 1489.5 C 1238.55 1483.31 1232.82 1482.11 1227.14 1480.88 C 1200.29 1475.06 1200.42 1451.9 1228.86 1448.41 z"/>
<path transform="translate(0,0)" fill="rgb(25,67,133)" d="M 691.018 1447.67 C 693.918 1447.68 694.556 1449.1 695.638 1451.09 C 696.246 1460.85 675.54 1484.25 668.576 1492.56 C 676.493 1492.18 686.476 1491.29 694.326 1492.62 C 698.457 1493.31 697.877 1500.46 695.633 1503.24 C 688.278 1504.5 664.12 1503.48 655.751 1503.31 C 651.789 1503.56 651.106 1503.57 649.754 1500.15 C 650.72 1490.04 669.126 1469.13 676.302 1460.07 C 668.824 1460.23 655.207 1461.91 650.03 1456.66 C 650.16 1449.25 654.941 1448.04 661.698 1447.81 C 671.51 1447.47 681.168 1448.24 691.018 1447.67 z"/>
<path transform="translate(0,0)" fill="rgb(25,67,133)" d="M 1174.28 1448.23 C 1185.57 1447.16 1206.63 1457.53 1199.14 1468.68 C 1195.71 1470.26 1192.19 1469.02 1188.26 1468.28 L 1187.32 1467.13 C 1159.07 1432.97 1160.85 1522.02 1188.97 1482.91 C 1193.98 1482.63 1195.97 1481.66 1199.55 1485.19 C 1203.41 1499.97 1174.08 1509.09 1162.58 1500.27 C 1149.4 1490.16 1147.75 1471.24 1156.48 1457.69 C 1161.07 1450.56 1166.82 1449.54 1174.28 1448.23 z"/>
<path transform="translate(0,0)" fill="rgb(25,67,133)" d="M 621.296 1433.61 C 625.206 1433.66 630.048 1433.54 632.849 1436.24 C 634.826 1444.46 634.603 1446.39 642.839 1449.88 C 644.479 1453.21 643.894 1452.6 643.671 1456.86 C 641.417 1459.43 641.061 1458.69 636.704 1459.48 C 635.264 1460.78 634.783 1460.68 634.636 1462.76 C 634.349 1466.82 633.913 1488.08 636.178 1490.13 C 641.834 1495.23 647.096 1493.03 642.725 1503.61 C 608.583 1505.13 621.172 1484.75 618.381 1461.89 C 618.019 1458.92 614.16 1459.58 611.452 1455.7 C 611.496 1448.46 616.408 1447.24 618.445 1440.1 C 619.232 1437.35 619.96 1436.12 621.296 1433.61 z"/>
<path transform="translate(0,0)" fill="rgb(25,67,133)" d="M 710.488 1423.53 C 714.808 1423.46 718.2 1423 722.111 1424.68 C 723.842 1427.65 723.584 1495.25 722.52 1502.16 L 720.736 1503.35 L 706.425 1504.06 C 708.467 1479.15 705.229 1452.5 707.238 1427.52 C 707.448 1424.91 708.566 1424.74 710.488 1423.53 z"/>
<path transform="translate(0,0)" fill="rgb(25,67,133)" d="M 1125.2 1448.15 C 1130.29 1447.71 1135.43 1448.09 1140.55 1448.31 C 1142.27 1465.43 1140.72 1486.69 1141.16 1504.2 C 1136.14 1503.97 1130.6 1504.01 1125.52 1503.94 C 1126.02 1486.33 1125.18 1466.09 1125.2 1448.15 z"/>
<path transform="translate(0,0)" fill="rgb(25,67,133)" d="M 737.651 1448.34 C 741.667 1447.92 747.096 1447.16 750.657 1448.72 C 751.372 1454.41 752.214 1500.1 750.731 1503.96 C 746.449 1503.74 741.237 1503.85 736.866 1503.85 C 736.987 1494.1 733.995 1454.25 737.651 1448.34 z"/>
<path transform="translate(0,0)" fill="rgb(25,67,133)" d="M 740.009 1424.69 C 746.776 1425.17 750.696 1425.61 751.901 1432.88 C 750.83 1436.75 750.253 1437.13 747.205 1439.81 C 735.587 1440.97 730.376 1433.32 740.009 1424.69 z"/>
<path transform="translate(0,0)" fill="rgb(25,67,133)" d="M 1129.67 1425.16 C 1133.67 1423.26 1138.45 1424.93 1140.39 1428.9 C 1142.33 1432.87 1140.71 1437.67 1136.76 1439.65 C 1134.17 1440.96 1131.07 1440.77 1128.66 1439.15 C 1126.24 1437.54 1124.88 1434.75 1125.09 1431.86 C 1125.3 1428.96 1127.05 1426.4 1129.67 1425.16 z"/>
</svg>